<?xml version="1.0" encoding="utf-8"?>
<!-- Generator: Adobe Illustrator 22.0.0, SVG Export Plug-In . SVG Version: 6.00 Build 0)  -->
<svg version="1.1" id="Layer_1" xmlns="http://www.w3.org/2000/svg" xmlns:xlink="http://www.w3.org/1999/xlink" x="0px" y="0px"
	 viewBox="0 0 753.4 778" style="enable-background:new 0 0 753.4 778;" xml:space="preserve">
<path d="M701.8,250.7c-34.4-33.1-78-49.7-130.7-49.7c-4.5,0-9,0.1-13.4,0.4L683.8,0H507.3l-110,200.4c-4.3,7.1-8.2,13.9-11.7,20.5
	c-3.5,6.6-6.6,12.8-9,18.9c-5.7,11.3-10.8,23.9-15.4,37.7c-4.6-14.2-9-25.9-13.3-35.1c-2.8-6.4-6-12.9-9.6-19.7
	c-3.5-6.7-7.1-13.1-10.6-19.1L216.6,0H39.1l126.8,201.2c-47.4,1.5-86.5,18-117.4,49.6C16.2,283.9,0,326.1,0,377.5
	c0,53.4,15.6,95.8,46.7,127.4c29.9,30.3,69.7,46.1,119.3,47.3L32.8,778h178.6l115.3-214.2c6.4-12.4,12.3-25.1,17.8-38
	c5.5-12.9,11.4-29.3,17.8-49.2c2.1,7.1,5.3,16.7,9.6,28.7c1.1,3.5,2.8,8.9,5.3,15.9c5.3,13.5,11.7,27.1,19.1,40.9L511.6,778h179.6
	L558.1,551.9c4.3,0.2,8.6,0.4,13,0.4c53,0,96.6-16.7,130.9-50.2c34.3-33.5,51.4-75.2,51.4-125.2
	C753.4,325.9,736.2,283.9,701.8,250.7z M121.9,294.9c12.9-10.5,29.9-15.7,51.1-15.7c21.6,0,38.5,5.3,50.7,15.9
	c1.2,1.1,2.4,2.2,3.6,3.4l13.3,21c2.6,6.7,4.5,14.2,5.6,22.5H97.2C100.7,321,108.9,305.3,121.9,294.9z M218.8,459.7
	c-12.6,6.5-27.4,9.8-44.6,9.8c-22.7,0-40.8-5.8-54.3-17.4c-13.5-11.6-22.1-29.2-25.9-52.7h162.1l-34.8,58.9
	C220.6,458.8,219.7,459.3,218.8,459.7z M632.8,440c-15.8,16.1-36.6,24.2-62.4,24.2c-26.3,0-47.1-8-62.4-24c-15.4-16-23-37.3-23-64
	c0-26.9,7.7-48.2,23.2-64c15.5-15.8,36.2-23.7,62.3-23.7c26.5,0,47.5,7.9,62.9,23.8c15.5,15.9,23.2,37.2,23.2,63.8
	C656.5,402.6,648.6,423.9,632.8,440z"/>
</svg>
