<?xml version="1.0" encoding="utf-8"?>
<!-- Generator: Adobe Illustrator 22.0.0, SVG Export Plug-In . SVG Version: 6.00 Build 0)  -->
<svg version="1.1" id="Layer_1" xmlns="http://www.w3.org/2000/svg" xmlns:xlink="http://www.w3.org/1999/xlink" x="0px" y="0px"
	 viewBox="0 0 972.4 222.6" style="enable-background:new 0 0 972.4 222.6;" xml:space="preserve">
<style type="text/css">
	.st0{fill:url(#SVGID_1_);}
</style>
<g>
	<g>
		<linearGradient id="SVGID_1_" gradientUnits="userSpaceOnUse" x1="3.019897e-05" y1="111.2884" x2="972.4291" y2="111.2884">
			<stop  offset="0" style="stop-color:#FF0000"/>
			<stop  offset="1" style="stop-color:#FFFFFF"/>
		</linearGradient>
		<path class="st0" d="M99.1,129.5c-8,5.8-17.4,8.6-28,8.6c-14.8,0-26.6-5.3-35.4-16c-8.8-10.6-13.5-25.3-14-44h114.9v-4.4
			c0-22.4-6-40.3-18.1-53.7C106.4,6.7,90.4,0,70.4,0c-21,0-37.9,7.3-50.9,21.8C6.5,36.4,0,55.5,0,79.2c0,23,6.5,41.6,19.6,55.8
			c13.1,14.2,30.2,21.3,51.4,21.3c15.5,0,28.6-3.4,39.4-10.3c10.7-6.9,19.7-17.7,27.1-32.3l-18.4-10.1
			C113.8,115.1,107.1,123.8,99.1,129.5z M37.2,30.8c8.2-7.6,18.4-11.4,30.6-11.4c13.4,0,24,3.6,31.8,10.9
			c7.8,7.3,12.2,17.5,13.2,30.8H23C24.3,48.5,29,38.4,37.2,30.8z M268.3,5.4h-24.4l-35.4,53.1L173.2,5.4h-24.9l49,69.4l-54.1,75.1
			h25.1l39.9-58.3l40.4,58.3h24.8l-53.8-75.1L268.3,5.4z M414.8,22.8c-7.5-7.4-16-13-25.7-16.9C379.5,2,369.4,0,358.7,0
			c-10.4,0-20.4,2-29.8,5.9c-9.5,3.9-17.9,9.6-25.3,16.9c-7.3,7.3-12.9,15.6-16.8,25.1s-5.9,19.4-5.9,30c0,10.6,1.9,20.6,5.7,30
			c3.8,9.3,9.3,17.6,16.6,24.8c7.7,7.6,16.3,13.4,25.7,17.5c9.5,4.1,19.3,6.1,29.7,6.1c10.5,0,20.7-2,30.4-6.1
			c9.7-4.1,18.4-9.9,26-17.5c7.4-7.3,13-15.6,16.9-25c3.9-9.4,5.9-19.3,5.9-29.7c0-10.4-2-20.4-5.9-29.8
			C428,38.6,422.3,30.2,414.8,22.8z M399.7,120.3c-11,11.5-24.5,17.2-40.3,17.2c-15.9,0-29.3-5.7-40.2-17.2
			c-11-11.5-16.5-25.5-16.5-42.1c0-16.8,5.5-31,16.5-42.4c11-11.4,24.4-17.1,40.2-17.1c16,0,29.4,5.7,40.4,17.1
			c11,11.4,16.5,25.5,16.5,42.4C416.2,94.8,410.7,108.9,399.7,120.3z M541,0c-11.1,0-20.9,2.3-29.4,6.9
			c-8.5,4.6-15.7,11.5-21.6,20.8V5.4H471v144.5h20V74.5c0-19.4,3.6-33.7,10.8-42.8c7.2-9.1,18.5-13.6,33.8-13.6
			c12.6,0,21.9,3.5,27.9,10.5c6,7,9,17.7,9,32.2v89.1H593V51.8c0-16.3-4.6-29-13.7-38.1C570.2,4.6,557.4,0,541,0z M679.5,118.5
			L638.1,5.4h-21.3l52,143.6l-25.3,73.6h20.7L739,5.4h-21.3L679.5,118.5z M959.2,13.9C950.4,4.6,938.4,0,923.1,0
			c-11.1,0-20.8,2.4-29.2,7.1c-8.4,4.7-15.4,11.9-21.2,21.4c-4-9.3-9.8-16.4-17.2-21.3c-7.4-4.8-16.4-7.3-27-7.3
			c-10.2,0-19.2,2.4-27,7.2c-7.8,4.8-14.1,11.7-18.9,20.9V5.4h-20v144.5h20V73.8c0-19.3,3.3-33.6,9.9-42.7
			c6.6-9.1,17-13.7,31.1-13.7c11.6,0,20.2,3.4,25.7,10.3c5.5,6.8,8.3,17.7,8.3,32.4v89.8h19.9V73.8c0-19.6,3.2-33.8,9.7-42.9
			c6.5-9,16.6-13.5,30.4-13.5c11.5,0,20.2,3.6,26,10.8c5.8,7.2,8.7,17.8,8.7,31.9v89.8h20V52.1C972.4,36,968,23.2,959.2,13.9z"/>
	</g>
</g>
</svg>
