<svg xmlns="http://www.w3.org/2000/svg" viewBox="0 0 82 82">
  <defs>
    <style>
      .cls-1, .cls-3 {
        fill: #fff;
      }

      .cls-2, .cls-3 {
        stroke: none;
      }
    </style>
  </defs>
  <g id="network" transform="translate(1 1)">
    <g id="Group_13" data-name="Group 13" transform="translate(24)">
      <g id="Group_12" data-name="Group 12">
        <g id="Path_5" data-name="Path 5" class="cls-1" transform="translate(-144)">
          <path class="cls-2" d="M 174.6666717529297 35.16666412353516 L 145.3333282470703 35.16666412353516 C 144.3224334716797 35.16666412353516 143.5 34.34423446655273 143.5 33.33333587646484 L 143.5 28.00000381469727 C 143.5 22.33138847351074 147.3323974609375 17.3979606628418 152.7356109619141 15.93853759765625 C 151.0934143066406 14.13320350646973 150.1666717529297 11.77287006378174 150.1666717529297 9.333333969116211 C 150.1666717529297 3.911213874816895 154.577880859375 -0.4999960362911224 160 -0.4999960362911224 C 165.422119140625 -0.4999960362911224 169.8333435058594 3.911213874816895 169.8333435058594 9.333333969116211 C 169.8333435058594 11.77287864685059 168.9066009521484 14.13321113586426 167.264404296875 15.93853855133057 C 172.6676025390625 17.3979606628418 176.5 22.33138847351074 176.5 28.00000381469727 L 176.5 33.33333587646484 C 176.5 34.34423446655273 175.6775665283203 35.16666412353516 174.6666717529297 35.16666412353516 Z M 147.1666717529297 31.50000381469727 L 172.8333435058594 31.50000381469727 L 172.8333435058594 28.00000381469727 C 172.8333435058594 23.1292839050293 168.8707275390625 19.16666412353516 164 19.16666412353516 L 156 19.16666412353516 C 151.1292877197266 19.16666412353516 147.1666717529297 23.1292839050293 147.1666717529297 28.00000381469727 L 147.1666717529297 31.50000381469727 Z M 160 3.166663885116577 C 156.5996856689453 3.166663885116577 153.8333435058594 5.933023929595947 153.8333435058594 9.333333969116211 C 153.8333435058594 12.73364353179932 156.5996856689453 15.50000381469727 160 15.50000381469727 C 163.4003143310547 15.50000381469727 166.1666717529297 12.73364353179932 166.1666717529297 9.333333969116211 C 166.1666717529297 5.933023929595947 163.4003143310547 3.166663885116577 160 3.166663885116577 Z"/>
          <path class="cls-3" d="M 174.6666717529297 34.66666412353516 C 175.4026641845703 34.66666412353516 176 34.07066345214844 176 33.33333587646484 L 176 28.00000381469727 C 176 22.16133308410645 171.8066711425781 17.28933334350586 166.2746734619141 16.22266387939453 C 168.1480102539063 14.51466369628906 169.3333435058594 12.06266403198242 169.3333435058594 9.333333969116211 C 169.3333435058594 4.188004016876221 165.1466674804688 3.969116278312868e-06 160 3.969116278312868e-06 C 154.8533325195313 3.969116278312868e-06 150.6666717529297 4.188004016876221 150.6666717529297 9.333333969116211 C 150.6666717529297 12.06266403198242 151.8520050048828 14.51466369628906 153.725341796875 16.22266387939453 C 148.1933288574219 17.28933334350586 144 22.16133308410645 144 28.00000381469727 L 144 33.33333587646484 C 144 34.07066345214844 144.5973358154297 34.66666412353516 145.3333282470703 34.66666412353516 L 174.6666717529297 34.66666412353516 M 156 18.66666412353516 L 164 18.66666412353516 C 169.1466674804688 18.66666412353516 173.3333435058594 22.85466384887695 173.3333435058594 28.00000381469727 L 173.3333435058594 32.00000381469727 L 146.6666717529297 32.00000381469727 L 146.6666717529297 28.00000381469727 C 146.6666717529297 22.85466384887695 150.8533325195313 18.66666412353516 156 18.66666412353516 M 160 2.666663885116577 C 163.6759948730469 2.666663885116577 166.6666717529297 5.657333850860596 166.6666717529297 9.333333969116211 C 166.6666717529297 13.00933361053467 163.6759948730469 16.00000381469727 160 16.00000381469727 C 156.3240051269531 16.00000381469727 153.3333435058594 13.00933361053467 153.3333435058594 9.333333969116211 C 153.3333435058594 5.657333850860596 156.3240051269531 2.666663885116577 160 2.666663885116577 M 174.6666717529297 35.66666412353516 L 145.3333282470703 35.66666412353516 C 144.0467224121094 35.66666412353516 143 34.61993408203125 143 33.33333587646484 L 143 28.00000381469727 C 143 22.36707878112793 146.6382598876953 17.43229866027832 151.8639373779297 15.68001174926758 C 150.4526519775391 13.87377166748047 149.6666717529297 11.6374454498291 149.6666717529297 9.333333969116211 C 149.6666717529297 3.6355140209198 154.3021850585938 -0.9999960064888 160 -0.9999960064888 C 165.6978149414063 -0.9999960064888 170.3333435058594 3.6355140209198 170.3333435058594 9.333333969116211 C 170.3333435058594 11.63745307922363 169.54736328125 13.87377834320068 168.1360626220703 15.68001365661621 C 173.3617401123047 17.43230628967285 177 22.36707878112793 177 28.00000381469727 L 177 33.33333587646484 C 177 34.61993408203125 175.9532775878906 35.66666412353516 174.6666717529297 35.66666412353516 Z M 147.6666717529297 31.00000381469727 L 172.3333435058594 31.00000381469727 L 172.3333435058594 28.00000381469727 C 172.3333435058594 23.40498352050781 168.5950164794922 19.66666412353516 164 19.66666412353516 L 156 19.66666412353516 C 151.4049835205078 19.66666412353516 147.6666717529297 23.40498352050781 147.6666717529297 28.00000381469727 L 147.6666717529297 31.00000381469727 Z M 160 3.666663885116577 C 156.8753967285156 3.666663885116577 154.3333435058594 6.208724021911621 154.3333435058594 9.333333969116211 C 154.3333435058594 12.4579439163208 156.8753967285156 15.00000381469727 160 15.00000381469727 C 163.1246032714844 15.00000381469727 165.6666717529297 12.4579439163208 165.6666717529297 9.333333969116211 C 165.6666717529297 6.208724021911621 163.1246032714844 3.666663885116577 160 3.666663885116577 Z"/>
        </g>
      </g>
    </g>
    <g id="Group_15" data-name="Group 15" transform="translate(0 45.333)">
      <g id="Group_14" data-name="Group 14">
        <g id="Path_6" data-name="Path 6" class="cls-1" transform="translate(0 -272)">
          <path class="cls-2" d="M 30.66666984558105 307.1666870117188 L 1.333330035209656 307.1666870117188 C 0.3224300146102905 307.1666870117188 -0.5 306.34423828125 -0.5 305.3333435058594 L -0.5 300 C -0.5 294.3313903808594 3.332391262054443 289.39794921875 8.735593795776367 287.9385375976563 C 7.09340763092041 286.1332397460938 6.166669845581055 283.7729187011719 6.166669845581055 281.3333435058594 C 6.166669845581055 275.9112243652344 10.57787990570068 271.5 16 271.5 C 21.422119140625 271.5 25.83333015441895 275.9112243652344 25.83333015441895 281.3333435058594 C 25.83333015441895 283.7729187011719 24.90659141540527 286.1332397460938 23.26440620422363 287.9385375976563 C 28.6676082611084 289.39794921875 32.5 294.3313903808594 32.5 300 L 32.5 305.3333435058594 C 32.5 306.34423828125 31.67757034301758 307.1666870117188 30.66666984558105 307.1666870117188 Z M 3.166670083999634 303.5 L 28.83333015441895 303.5 L 28.83333015441895 300 C 28.83333015441895 295.1293029785156 24.8707103729248 291.1666870117188 20 291.1666870117188 L 12 291.1666870117188 C 7.129290103912354 291.1666870117188 3.166670083999634 295.1293029785156 3.166670083999634 300 L 3.166670083999634 303.5 Z M 16 275.1666870117188 C 12.59969043731689 275.1666870117188 9.833330154418945 277.9330444335938 9.833330154418945 281.3333435058594 C 9.833330154418945 284.733642578125 12.59969043731689 287.5 16 287.5 C 19.40031051635742 287.5 22.16666984558105 284.733642578125 22.16666984558105 281.3333435058594 C 22.16666984558105 277.9330444335938 19.40031051635742 275.1666870117188 16 275.1666870117188 Z"/>
          <path class="cls-3" d="M 30.66666984558105 306.6666870117188 C 31.40266990661621 306.6666870117188 32 306.0706787109375 32 305.3333435058594 L 32 300 C 32 294.1613464355469 27.80666923522949 289.2893371582031 22.2746696472168 288.22265625 C 24.14800071716309 286.5146789550781 25.33333015441895 284.0626831054688 25.33333015441895 281.3333435058594 C 25.33333015441895 276.18798828125 21.14666938781738 272 16 272 C 10.8533296585083 272 6.666669845581055 276.18798828125 6.666669845581055 281.3333435058594 C 6.666669845581055 284.0626831054688 7.85200023651123 286.5146789550781 9.725330352783203 288.22265625 C 4.193329811096191 289.2893371582031 0 294.1613464355469 0 300 L 0 305.3333435058594 C 0 306.0706787109375 0.5973299741744995 306.6666870117188 1.333330035209656 306.6666870117188 L 30.66666984558105 306.6666870117188 M 12 290.6666870117188 L 20 290.6666870117188 C 25.14666938781738 290.6666870117188 29.33333015441895 294.8546752929688 29.33333015441895 300 L 29.33333015441895 304 L 2.666670083999634 304 L 2.666670083999634 300 C 2.666670083999634 294.8546752929688 6.853330135345459 290.6666870117188 12 290.6666870117188 M 16 274.6666870117188 C 19.67600059509277 274.6666870117188 22.66666984558105 277.6573486328125 22.66666984558105 281.3333435058594 C 22.66666984558105 285.0093383789063 19.67600059509277 288 16 288 C 12.32400035858154 288 9.333330154418945 285.0093383789063 9.333330154418945 281.3333435058594 C 9.333330154418945 277.6573486328125 12.32400035858154 274.6666870117188 16 274.6666870117188 M 30.66666984558105 307.6666870117188 L 1.333330035209656 307.6666870117188 C 0.04673000052571297 307.6666870117188 -1 306.6199645996094 -1 305.3333435058594 L -1 300 C -1 294.3670654296875 2.638259649276733 289.4323120117188 7.8639235496521 287.6800231933594 C 6.452635288238525 285.873779296875 5.666669845581055 283.6374816894531 5.666669845581055 281.3333435058594 C 5.666669845581055 275.6355285644531 10.30218029022217 271 16 271 C 21.69782066345215 271 26.33333015441895 275.6355285644531 26.33333015441895 281.3333435058594 C 26.33333015441895 283.6374816894531 25.54736518859863 285.873779296875 24.13607597351074 287.6800231933594 C 29.36174011230469 289.4323120117188 33 294.3670654296875 33 300 L 33 305.3333435058594 C 33 306.6199645996094 31.95326995849609 307.6666870117188 30.66666984558105 307.6666870117188 Z M 3.666670083999634 303 L 28.33333015441895 303 L 28.33333015441895 300 C 28.33333015441895 295.4049987792969 24.59501075744629 291.6666870117188 20 291.6666870117188 L 12 291.6666870117188 C 7.404990196228027 291.6666870117188 3.666670083999634 295.4049987792969 3.666670083999634 300 L 3.666670083999634 303 Z M 16 275.6666870117188 C 12.87539005279541 275.6666870117188 10.33333015441895 278.208740234375 10.33333015441895 281.3333435058594 C 10.33333015441895 284.4579467773438 12.87539005279541 287 16 287 C 19.12461090087891 287 21.66666984558105 284.4579467773438 21.66666984558105 281.3333435058594 C 21.66666984558105 278.208740234375 19.12461090087891 275.6666870117188 16 275.6666870117188 Z"/>
        </g>
      </g>
    </g>
    <g id="Group_17" data-name="Group 17" transform="translate(48 45.333)">
      <g id="Group_16" data-name="Group 16">
        <g id="Path_7" data-name="Path 7" class="cls-1" transform="translate(-288 -272)">
          <path class="cls-2" d="M 318.6666870117188 307.1666870117188 L 289.3333435058594 307.1666870117188 C 288.3224182128906 307.1666870117188 287.5 306.34423828125 287.5 305.3333435058594 L 287.5 300 C 287.5 294.3313903808594 291.3323974609375 289.39794921875 296.735595703125 287.9385375976563 C 295.0934143066406 286.1332092285156 294.1666564941406 283.7729187011719 294.1666564941406 281.3333435058594 C 294.1666564941406 275.9112243652344 298.577880859375 271.5 304 271.5 C 309.422119140625 271.5 313.8333435058594 275.9112243652344 313.8333435058594 281.3333435058594 C 313.8333435058594 283.7729187011719 312.9065856933594 286.1332092285156 311.264404296875 287.9385375976563 C 316.6676025390625 289.39794921875 320.5 294.3313903808594 320.5 300 L 320.5 305.3333435058594 C 320.5 306.34423828125 319.6775817871094 307.1666870117188 318.6666870117188 307.1666870117188 Z M 291.1666564941406 303.5 L 316.8333435058594 303.5 L 316.8333435058594 300 C 316.8333435058594 295.1293029785156 312.8707275390625 291.1666870117188 308 291.1666870117188 L 300 291.1666870117188 C 295.1292724609375 291.1666870117188 291.1666564941406 295.1293029785156 291.1666564941406 300 L 291.1666564941406 303.5 Z M 304 275.1666870117188 C 300.5997009277344 275.1666870117188 297.8333435058594 277.9330444335938 297.8333435058594 281.3333435058594 C 297.8333435058594 284.733642578125 300.5997009277344 287.5 304 287.5 C 307.4003295898438 287.5 310.1666870117188 284.733642578125 310.1666870117188 281.3333435058594 C 310.1666870117188 277.9330444335938 307.4003295898438 275.1666870117188 304 275.1666870117188 Z"/>
          <path class="cls-3" d="M 318.6666870117188 306.6666870117188 C 319.4026489257813 306.6666870117188 320 306.0706787109375 320 305.3333435058594 L 320 300 C 320 294.1613464355469 315.8066711425781 289.2893371582031 310.274658203125 288.22265625 C 312.1480102539063 286.5146789550781 313.3333435058594 284.0626831054688 313.3333435058594 281.3333435058594 C 313.3333435058594 276.18798828125 309.1466674804688 272 304 272 C 298.8533325195313 272 294.6666564941406 276.18798828125 294.6666564941406 281.3333435058594 C 294.6666564941406 284.0626831054688 295.8519897460938 286.5146789550781 297.725341796875 288.22265625 C 292.1933288574219 289.2893371582031 288 294.1613464355469 288 300 L 288 305.3333435058594 C 288 306.0706787109375 288.5973510742188 306.6666870117188 289.3333435058594 306.6666870117188 L 318.6666870117188 306.6666870117188 M 300 290.6666870117188 L 308 290.6666870117188 C 313.1466674804688 290.6666870117188 317.3333435058594 294.8546752929688 317.3333435058594 300 L 317.3333435058594 304 L 290.6666564941406 304 L 290.6666564941406 300 C 290.6666564941406 294.8546752929688 294.8533325195313 290.6666870117188 300 290.6666870117188 M 304 274.6666870117188 C 307.6759948730469 274.6666870117188 310.6666870117188 277.6573486328125 310.6666870117188 281.3333435058594 C 310.6666870117188 285.0093383789063 307.6759948730469 288 304 288 C 300.3240051269531 288 297.3333435058594 285.0093383789063 297.3333435058594 281.3333435058594 C 297.3333435058594 277.6573486328125 300.3240051269531 274.6666870117188 304 274.6666870117188 M 318.6666870117188 307.6666870117188 L 289.3333435058594 307.6666870117188 C 288.0467224121094 307.6666870117188 287 306.6199645996094 287 305.3333435058594 L 287 300 C 287 294.3670654296875 290.6382446289063 289.4323120117188 295.8639221191406 287.6800231933594 C 294.45263671875 285.873779296875 293.6666564941406 283.6374816894531 293.6666564941406 281.3333435058594 C 293.6666564941406 275.6355285644531 298.3021850585938 271 304 271 C 309.6978149414063 271 314.3333435058594 275.6355285644531 314.3333435058594 281.3333435058594 C 314.3333435058594 283.6374816894531 313.54736328125 285.873779296875 312.1360778808594 287.6800231933594 C 317.3617553710938 289.4323120117188 321 294.3670654296875 321 300 L 321 305.3333435058594 C 321 306.6199645996094 319.9532775878906 307.6666870117188 318.6666870117188 307.6666870117188 Z M 291.6666564941406 303 L 316.3333435058594 303 L 316.3333435058594 300 C 316.3333435058594 295.4049987792969 312.5950317382813 291.6666870117188 308 291.6666870117188 L 300 291.6666870117188 C 295.4049682617188 291.6666870117188 291.6666564941406 295.4049987792969 291.6666564941406 300 L 291.6666564941406 303 Z M 304 275.6666870117188 C 300.8753967285156 275.6666870117188 298.3333435058594 278.208740234375 298.3333435058594 281.3333435058594 C 298.3333435058594 284.4579467773438 300.8753967285156 287 304 287 C 307.1246337890625 287 309.6666870117188 284.4579467773438 309.6666870117188 281.3333435058594 C 309.6666870117188 278.208740234375 307.1246337890625 275.6666870117188 304 275.6666870117188 Z"/>
        </g>
      </g>
    </g>
    <g id="Group_19" data-name="Group 19" transform="translate(5.361 42.624)">
      <g id="Group_18" data-name="Group 18">
        <g id="Path_8" data-name="Path 8" class="cls-1" transform="translate(-32.168 -255.744)">
          <path class="cls-2" d="M 31.94955444335938 259.16796875 L 31.89019393920898 258.6713256835938 C 31.77969360351563 257.746826171875 31.70506286621094 256.8034973144531 31.66838455200195 255.8675689697266 L 31.6488037109375 255.3678741455078 L 32.14850234985352 255.3483734130859 L 34.81250381469727 255.2443695068359 L 35.31198501586914 255.2248687744141 L 35.33161544799805 255.7243499755859 C 35.36454391479492 256.5620727539063 35.43166351318359 257.4067993164063 35.53110504150391 258.2350769042969 L 35.59071350097656 258.7316284179688 L 35.09415435791016 258.7911376953125 L 32.44615173339844 259.1084594726563 L 31.94955444335938 259.16796875 Z"/>
          <path class="cls-3" d="M 32.38666534423828 258.6119995117188 L 35.03466415405273 258.294677734375 C 34.93333435058594 257.4506530761719 34.86533355712891 256.5919799804688 34.83200454711914 255.7439880371094 L 32.16800308227539 255.8479919433594 C 32.20400238037109 256.7666625976563 32.2773323059082 257.6973266601563 32.38666534423828 258.6119995117188 M 31.51245307922363 259.7239074707031 L 31.39373397827148 258.7306823730469 C 31.28165435791016 257.7930297851563 31.20596313476563 256.8363037109375 31.16877365112305 255.8871459960938 L 31.12960433959961 254.8877716064453 L 32.12899398803711 254.8487548828125 L 34.79299545288086 254.7447509765625 L 35.79196548461914 254.7057495117188 L 35.83123397827148 255.7047119140625 C 35.86363220214844 256.5291137695313 35.92968368530273 257.3604125976563 36.02753448486328 258.1754760742188 L 36.14676284790039 259.1685791015625 L 35.15364456176758 259.2875671386719 L 32.50564193725586 259.6048889160156 L 31.51245307922363 259.7239074707031 Z"/>
        </g>
      </g>
    </g>
    <g id="Group_21" data-name="Group 21" transform="translate(5.361 37.196)">
      <g id="Group_20" data-name="Group 20">
        <g id="Path_9" data-name="Path 9" class="cls-1" transform="translate(-32.168 -223.176)">
          <path class="cls-2" d="M 35.31209564208984 226.5617828369141 L 34.81249618530273 226.5422821044922 L 32.14849472045898 226.4382781982422 L 31.64962577819824 226.4187927246094 L 31.6683464050293 225.9199066162109 C 31.70279693603516 225.0018463134766 31.77697563171387 224.0588226318359 31.88881683349609 223.1170349121094 L 31.94778633117676 222.6204833984375 L 32.4443244934082 222.6794891357422 L 35.09233474731445 222.9941558837891 L 35.5888557434082 223.0531463623047 L 35.52984619140625 223.5496673583984 C 35.43093490600586 224.3818359375 35.36423492431641 225.2271575927734 35.33161544799805 226.0621795654297 L 35.31209564208984 226.5617828369141 Z"/>
          <path class="cls-3" d="M 34.83199691772461 226.0426635742188 C 34.86533737182617 225.1893310546875 34.93333435058594 224.3320007324219 35.0333366394043 223.4906616210938 L 32.38532638549805 223.1759948730469 C 32.27733612060547 224.0853271484375 32.20266723632813 225.0146636962891 32.16799545288086 225.9386596679688 L 34.83199691772461 226.0426635742188 M 35.79219436645508 227.0809020996094 L 34.79298782348633 227.0419006347656 L 32.12898635864258 226.9378967285156 L 31.13125610351563 226.8989562988281 L 31.1686954498291 225.9011535644531 C 31.20364570617676 224.9697113037109 31.27887535095215 224.0131530761719 31.39230537414551 223.0580749511719 L 31.51024627685547 222.0649719238281 L 32.50332641601563 222.1829833984375 L 35.15133666992188 222.4976501464844 L 36.14437484741211 222.6156463623047 L 36.02634429931641 223.6086883544922 C 35.92898559570313 224.4277954101563 35.86334609985352 225.2598266601563 35.83123779296875 226.0816955566406 L 35.79219436645508 227.0809020996094 Z"/>
        </g>
      </g>
    </g>
    <g id="Group_23" data-name="Group 23" transform="translate(16.848 13.757)">
      <g id="Group_22" data-name="Group 22">
        <g id="Path_10" data-name="Path 10" class="cls-1" transform="translate(-101.088 -82.544)">
          <path class="cls-2" d="M 102.8330535888672 87.00356292724609 L 102.4987564086914 86.63150787353516 L 100.7160873413086 84.64750671386719 L 100.3817138671875 84.27536773681641 L 100.7540435791016 83.94122314453125 C 101.4511337280273 83.31558990478516 102.1806182861328 82.71172332763672 102.9222183227539 82.14636993408203 L 103.3199844360352 81.84313201904297 L 103.6230850219727 82.24101257324219 L 105.2390747070313 84.36234283447266 L 105.5423278808594 84.76042175292969 L 105.1439895629883 85.06333160400391 C 104.485595703125 85.56398010253906 103.8332138061523 86.104248046875 103.2049865722656 86.66912841796875 L 102.8330535888672 87.00356292724609 Z"/>
          <path class="cls-3" d="M 102.8706741333008 86.29733276367188 C 103.5053329467773 85.72666931152344 104.1680068969727 85.17733764648438 104.8413391113281 84.66532897949219 L 103.2253494262695 82.54399871826172 C 102.4960021972656 83.09999847412109 101.77734375 83.69465637207031 101.088005065918 84.31333160400391 L 102.8706741333008 86.29733276367188 M 102.7954254150391 87.70979309082031 L 102.126838684082 86.96569061279297 L 100.3441696166992 84.981689453125 L 99.67542266845703 84.23741912841797 L 100.4200744628906 83.56909942626953 C 101.1270523071289 82.93460083007813 101.8669128417969 82.32213592529297 102.6190872192383 81.74872589111328 L 103.4146347045898 81.14225769042969 L 104.0208282470703 81.93801879882813 L 105.6368179321289 84.05934906005859 L 106.2433166503906 84.85552215576172 L 105.4466247558594 85.46132659912109 C 104.7991027832031 85.95372009277344 104.1573867797852 86.48517608642578 103.5392990112305 87.04093933105469 L 102.7954254150391 87.70979309082031 Z"/>
        </g>
      </g>
    </g>
    <g id="Group_25" data-name="Group 25" transform="translate(7.543 26.573)">
      <g id="Group_24" data-name="Group 24">
        <g id="Path_11" data-name="Path 11" class="cls-1" transform="translate(-45.256 -159.44)">
          <path class="cls-2" d="M 48.04401016235352 163.5784149169922 L 47.57621765136719 163.4027404785156 L 45.08021926879883 162.4654083251953 L 44.61195755004883 162.2895660400391 L 44.78797912597656 161.8213653564453 C 45.11750030517578 160.9449157714844 45.48609924316406 160.0720977783203 45.88356018066406 159.2271728515625 L 46.0966796875 158.7741088867188 L 46.5494499206543 158.9878540039063 L 48.96144866943359 160.1265258789063 L 49.41330718994141 160.33984375 L 49.20027923583984 160.7918395996094 C 48.84555053710938 161.5444946289063 48.51572799682617 162.3246917724609 48.219970703125 163.1107482910156 L 48.04401016235352 163.5784149169922 Z"/>
          <path class="cls-3" d="M 47.75199890136719 162.9346618652344 C 48.05199813842773 162.1373291015625 48.38666915893555 161.3453369140625 48.74799728393555 160.5786743164063 L 46.33599853515625 159.4400024414063 C 45.94400024414063 160.2733306884766 45.58132934570313 161.1320037841797 45.25600051879883 161.9973297119141 L 47.75199890136719 162.9346618652344 M 48.33600997924805 164.22216796875 L 47.40044021606445 163.8708343505859 L 44.90443801879883 162.9335021972656 L 43.96791839599609 162.5818023681641 L 44.31996917724609 161.6454162597656 C 44.65415954589844 160.7565155029297 45.02799987792969 159.8713073730469 45.43111801147461 159.0143432617188 L 45.85735702514648 158.1082153320313 L 46.76290893554688 158.5357055664063 L 49.17490768432617 159.6743774414063 L 50.07861709594727 160.1010131835938 L 49.65256881713867 161.0050048828125 C 49.30353927612305 161.7455596923828 48.97898864746094 162.5132751464844 48.68793869018555 163.2868194580078 L 48.33600997924805 164.22216796875 Z"/>
        </g>
      </g>
    </g>
    <g id="Group_27" data-name="Group 27" transform="translate(6.015 31.764)">
      <g id="Group_26" data-name="Group 26">
        <g id="Path_12" data-name="Path 12" class="cls-1" transform="translate(-36.088 -190.584)">
          <path class="cls-2" d="M 39.09400939941406 194.3928833007813 L 38.60393905639648 194.2941741943359 L 35.9892692565918 193.7675018310547 L 35.49880981445313 193.668701171875 L 35.59790802001953 193.1783142089844 C 35.78615951538086 192.2466583251953 36.01008987426758 191.3273468017578 36.26345825195313 190.4458923339844 L 36.40146636962891 189.9657592773438 L 36.88171768188477 190.1033630371094 L 39.44571685791016 190.8380126953125 L 39.92704772949219 190.9759368896484 L 39.78846740722656 191.4570617675781 C 39.56161880493164 192.2445983886719 39.3612174987793 193.0674591064453 39.19280624389648 193.90283203125 L 39.09400939941406 194.3928833007813 Z"/>
          <path class="cls-3" d="M 38.70266723632813 193.8040161132813 C 38.87066650390625 192.9706726074219 39.07333755493164 192.1333465576172 39.30799865722656 191.3186798095703 L 36.74399948120117 190.5840148925781 C 36.49066925048828 191.46533203125 36.27066802978516 192.3733520507813 36.08799743652344 193.27734375 L 38.70266723632813 193.8040161132813 M 39.48535919189453 194.9817504882813 L 38.50520706176758 194.7843322753906 L 35.89053726196289 194.2576599121094 L 34.90961837768555 194.0600738525391 L 35.10780715942383 193.0792694091797 C 35.2987174987793 192.1345367431641 35.52585983276367 191.2020568847656 35.78291702270508 190.3077545166016 L 36.05893707275391 189.3474884033203 L 37.01944732666016 189.6226959228516 L 39.58344650268555 190.3573608398438 L 40.54610824584961 190.6331787109375 L 40.26892852783203 191.595458984375 C 40.04582977294922 192.3699798583984 39.84867858886719 193.1795501708984 39.68294906616211 194.0016326904297 L 39.48535919189453 194.9817504882813 Z"/>
        </g>
      </g>
    </g>
    <g id="Group_29" data-name="Group 29" transform="translate(13.035 17.463)">
      <g id="Group_28" data-name="Group 28">
        <g id="Path_13" data-name="Path 13" class="cls-1" transform="translate(-78.208 -104.776)">
          <path class="cls-2" d="M 80.35559844970703 109.2392120361328 L 79.96685791015625 108.9247207641602 L 77.89351654052734 107.2473907470703 L 77.50444793701172 106.9326248168945 L 77.81955718994141 106.5438385009766 C 78.40972900390625 105.8156967163086 79.03350067138672 105.1050186157227 79.67356872558594 104.4315490722656 L 80.01789093017578 104.0692596435547 L 80.38031005859375 104.4134368896484 L 82.31363677978516 106.2494354248047 L 82.67636108398438 106.5938949584961 L 82.33174133300781 106.9564666748047 C 81.75466918945313 107.563591003418 81.19560241699219 108.2008209228516 80.67006683349609 108.850456237793 L 80.35559844970703 109.2392120361328 Z"/>
          <path class="cls-3" d="M 80.28134155273438 108.5359954833984 C 80.81199645996094 107.8800048828125 81.38001251220703 107.2319946289063 81.96932983398438 106.6119995117188 L 80.03599548339844 104.7760009765625 C 79.39733123779297 105.447998046875 78.78399658203125 106.1479949951172 78.20800018310547 106.8586654663086 L 80.28134155273438 108.5359954833984 M 80.42985534667969 109.9424209594727 L 79.65238952636719 109.3134384155273 L 77.57904815673828 107.6361083984375 L 76.80089569091797 107.006591796875 L 77.43112945556641 106.2290115356445 C 78.02952575683594 105.4906997680664 78.66205596923828 104.7700576782227 79.31114959716797 104.0870971679688 L 79.99977874755859 103.3625259399414 L 80.72461700439453 104.0508804321289 L 82.65795135498047 105.8868789672852 L 83.38339996337891 106.5758056640625 L 82.69413757324219 107.3009490966797 C 82.12619781494141 107.8984451293945 81.57599639892578 108.5255813598633 81.05879974365234 109.164924621582 L 80.42985534667969 109.9424209594727 Z"/>
        </g>
      </g>
    </g>
    <g id="Group_31" data-name="Group 31" transform="translate(21.252 10.761)">
      <g id="Group_30" data-name="Group 30">
        <g id="Path_14" data-name="Path 14" class="cls-1" transform="translate(-127.512 -64.568)">
          <path class="cls-2" d="M 128.8082733154297 68.90901184082031 L 128.5370635986328 68.48818969726563 L 127.0917205810547 66.24552917480469 L 126.8206405639648 65.82491302490234 L 127.2414779663086 65.55416870117188 C 128.0385437011719 65.04138946533203 128.8551177978516 64.56118774414063 129.6685333251953 64.12692260742188 L 130.1095581054688 63.89146041870117 L 130.3450622558594 64.33246612548828 L 131.6010589599609 66.68447113037109 L 131.8365631103516 67.12547302246094 L 131.3955841064453 67.36102294921875 C 130.6606903076172 67.75357818603516 129.9316558837891 68.18296813964844 129.2287445068359 68.63726043701172 L 128.8082733154297 68.90901184082031 Z"/>
          <path class="cls-3" d="M 128.9573364257813 68.21733093261719 C 129.6773376464844 67.75199890136719 130.4186706542969 67.31600189208984 131.1600036621094 66.91999816894531 L 129.9040069580078 64.56800079345703 C 129.0973358154297 64.99867248535156 128.2933349609375 65.47200012207031 127.5120010375977 65.97467041015625 L 128.9573364257813 68.21733093261719 M 128.6591949462891 69.60069274902344 L 128.1167755126953 68.75904846191406 L 126.6714401245117 66.51638793945313 L 126.1292877197266 65.67516326904297 L 126.970947265625 65.13368225097656 C 127.7793579101563 64.61358642578125 128.6077270507813 64.12647247314453 129.4330444335938 63.68584823608398 L 130.3150939941406 63.21493148803711 L 130.7861022949219 64.09693908691406 L 132.0421142578125 66.44893646240234 L 132.5131072998047 67.33094024658203 L 131.6311645507813 67.80204772949219 C 130.908447265625 68.18810272216797 130.1914520263672 68.61039733886719 129.5001373291016 69.05718994140625 L 128.6591949462891 69.60069274902344 Z"/>
        </g>
      </g>
    </g>
    <g id="Group_33" data-name="Group 33" transform="translate(9.904 21.767)">
      <g id="Group_32" data-name="Group 32">
        <g id="Path_15" data-name="Path 15" class="cls-1" transform="translate(-59.424 -130.6)">
          <path class="cls-2" d="M 61.92277908325195 134.9571533203125 L 61.48877716064453 134.7085113525391 L 59.17544555664063 133.3831787109375 L 58.74170684814453 133.1346740722656 L 58.99010848999023 132.7008819580078 C 59.45102691650391 131.8959350585938 59.95436859130859 131.0940399169922 60.48613739013672 130.3175048828125 L 60.76876831054688 129.9047698974609 L 61.18136596679688 130.1875915527344 L 63.3813591003418 131.6955871582031 L 63.79401779174805 131.9784393310547 L 63.51091766357422 132.3909301757813 C 63.03462600708008 133.0849151611328 62.58390808105469 133.8022766113281 62.17126846313477 134.5230865478516 L 61.92277908325195 134.9571533203125 Z"/>
          <path class="cls-3" d="M 61.73733901977539 134.2746734619141 C 62.15867614746094 133.5386657714844 62.61733627319336 132.809326171875 63.09866714477539 132.1080017089844 L 60.89867782592773 130.6000061035156 C 60.37733840942383 131.361328125 59.8813362121582 132.1506652832031 59.42400741577148 132.9493408203125 L 61.73733901977539 134.2746734619141 M 62.10820770263672 135.6396484375 L 61.24022674560547 135.1423645019531 L 58.92689895629883 133.8170318603516 L 58.05940628051758 133.3200225830078 L 58.55620574951172 132.4524230957031 C 59.02376556396484 131.6358947753906 59.53428649902344 130.8225555419922 60.07358551025391 130.0350036621094 L 60.63885879516602 129.2095336914063 L 61.46405792236328 129.7751770019531 L 63.66404724121094 131.2831726074219 L 64.48935699462891 131.848876953125 L 63.92316818237305 132.6738586425781 C 63.45453643798828 133.356689453125 63.0111083984375 134.0624237060547 62.60519790649414 134.7714996337891 L 62.10820770263672 135.6396484375 Z"/>
        </g>
      </g>
    </g>
    <g id="Group_35" data-name="Group 35" transform="translate(33.156 72.709)">
      <g id="Group_34" data-name="Group 34">
        <g id="Path_16" data-name="Path 16" class="cls-1" transform="translate(-198.936 -436.256)">
          <path class="cls-2" d="M 202.1159210205078 439.8601989746094 L 201.6191253662109 439.8019714355469 C 200.6725769042969 439.6910095214844 199.7365264892578 439.5425720214844 198.8369598388672 439.3607788085938 L 198.3471832275391 439.2618103027344 L 198.4458465576172 438.77197265625 L 198.9725036621094 436.1573181152344 L 199.0712585449219 435.6670837402344 L 199.5614776611328 435.7658996582031 C 200.3686218261719 435.9286193847656 201.2042999267578 436.0614929199219 202.0453033447266 436.1607971191406 L 202.5412292480469 436.2193603515625 L 202.4832916259766 436.7153625488281 L 202.1739501953125 439.3633728027344 L 202.1159210205078 439.8601989746094 Z"/>
          <path class="cls-3" d="M 201.6773376464844 439.3053588867188 L 201.9866638183594 436.6573486328125 C 201.1399993896484 436.557373046875 200.2893371582031 436.4226989746094 199.4626617431641 436.2560424804688 L 198.9360046386719 438.8706970214844 C 199.8333282470703 439.0520324707031 200.7559967041016 439.1973571777344 201.6773376464844 439.3053588867188 M 202.5545043945313 440.4150390625 L 201.5609130859375 440.2985534667969 C 200.6007232666016 440.1860046386719 199.6509399414063 440.035400390625 198.7379302978516 439.8508911132813 L 197.7583618164063 439.6529541015625 L 197.9556884765625 438.6732482910156 L 198.4823608398438 436.05859375 L 198.6798400878906 435.0780944824219 L 199.6602935791016 435.2757568359375 C 200.4541931152344 435.4358215332031 201.2763671875 435.5665283203125 202.1039276123047 435.6642456054688 L 203.0957946777344 435.7813720703125 L 202.9799194335938 436.7733764648438 L 202.6705780029297 439.42138671875 L 202.5545043945313 440.4150390625 Z"/>
        </g>
      </g>
    </g>
    <g id="Group_37" data-name="Group 37" transform="translate(43.873 72.693)">
      <g id="Group_36" data-name="Group 36">
        <g id="Path_17" data-name="Path 17" class="cls-1" transform="translate(-263.24 -436.16)">
          <path class="cls-2" d="M 263.1251831054688 439.7741394042969 L 263.06494140625 439.277587890625 L 262.7436218261719 436.6295776367188 L 262.6834411621094 436.1336669921875 L 263.1793212890625 436.0730285644531 C 264.0189514160156 435.9703674316406 264.8564453125 435.8347778320313 265.6685485839844 435.6699829101563 L 266.1587829589844 435.5704956054688 L 266.2580261230469 436.060791015625 L 266.787353515625 438.6754455566406 L 266.8865966796875 439.16552734375 L 266.396484375 439.2647399902344 C 265.4817199707031 439.4498596191406 264.5481567382813 439.6009216308594 263.6217346191406 439.7136840820313 L 263.1251831054688 439.7741394042969 Z"/>
          <path class="cls-3" d="M 263.5613098144531 439.2173461914063 C 264.4813232421875 439.1053466796875 265.4013061523438 438.9559936523438 266.2973022460938 438.774658203125 L 265.7679748535156 436.1600036621094 C 264.9400024414063 436.3280029296875 264.0906372070313 436.46533203125 263.239990234375 436.5693359375 L 263.5613098144531 439.2173461914063 M 262.6890869140625 440.3309020996094 L 262.5685729980469 439.3377990722656 L 262.2472534179688 436.6897888183594 L 262.1269226074219 435.697998046875 L 263.1186218261719 435.5767211914063 C 263.9453125 435.4756469726563 264.769775390625 435.3421630859375 265.5691223144531 435.1799621582031 L 266.5495910644531 434.9810180664063 L 266.7481079101563 435.9615783691406 L 267.2774353027344 438.5762329101563 L 267.4758605957031 439.5564270019531 L 266.4956665039063 439.7547912597656 C 265.568115234375 439.9425048828125 264.6215209960938 440.0956726074219 263.6821594238281 440.2100219726563 L 262.6890869140625 440.3309020996094 Z"/>
        </g>
      </g>
    </g>
    <g id="Group_39" data-name="Group 39" transform="translate(38.659 73.307)">
      <g id="Group_38" data-name="Group 38">
        <g id="Path_18" data-name="Path 18" class="cls-1" transform="translate(-231.952 -439.84)">
          <path class="cls-2" d="M 233.2987365722656 443.03466796875 L 233.2973327636719 443.03466796875 C 232.8115539550781 443.03466796875 232.3646087646484 443.0257873535156 231.9309844970703 443.007568359375 L 231.4326782226563 442.986572265625 L 231.452392578125 442.4882507324219 L 231.5577392578125 439.8242492675781 L 231.5774841308594 439.3247375488281 L 232.0770111083984 439.3443908691406 C 232.4596710205078 439.3594360351563 232.8572235107422 439.3670654296875 233.2586059570313 439.3670654296875 C 233.6942901611328 439.3670654296875 234.1448516845703 439.3580932617188 234.5977935791016 439.3403625488281 L 235.0969543457031 439.3208618164063 L 235.116943359375 439.8200073242188 L 235.2236022949219 442.4840087890625 L 235.2436218261719 442.9839172363281 L 234.7436828613281 443.0036010742188 C 234.2867126464844 443.0216064453125 233.8145294189453 443.0317687988281 233.3001403808594 443.03466796875 L 233.2987365722656 443.03466796875 Z"/>
          <path class="cls-3" d="M 233.2973327636719 442.53466796875 C 233.7746734619141 442.531982421875 234.2506713867188 442.5226440429688 234.7239990234375 442.5039978027344 L 234.6173400878906 439.8399963378906 C 234.1659088134766 439.857666015625 233.7117156982422 439.8670654296875 233.2586059570313 439.8670654296875 C 232.8565673828125 439.8670654296875 232.4554138183594 439.8596496582031 232.0573425292969 439.843994140625 L 231.9519958496094 442.5079956054688 C 232.39599609375 442.5266723632813 232.843994140625 442.53466796875 233.2973327636719 442.53466796875 M 233.3001403808594 443.53466796875 L 233.2973327636719 443.53466796875 C 232.8044738769531 443.53466796875 232.3506622314453 443.5256652832031 231.9099731445313 443.5071105957031 L 230.9133605957031 443.4651794433594 L 230.9527740478516 442.4684753417969 L 231.0581207275391 439.8044738769531 L 231.0976409912109 438.8054504394531 L 232.0966949462891 438.8447570800781 C 232.4726715087891 438.8595886230469 232.8636016845703 438.8670654296875 233.2586212158203 438.8670654296875 C 233.6876525878906 438.8670654296875 234.1316375732422 438.8582153320313 234.5782623291016 438.8407592773438 L 235.5765686035156 438.8017272949219 L 235.6165313720703 439.7999877929688 L 235.7231903076172 442.4639892578125 L 235.7632293701172 443.4638366699219 L 234.7633666992188 443.5032043457031 C 234.3007202148438 443.5214538574219 233.8230133056641 443.53173828125 233.3029479980469 443.5346374511719 L 233.3001403808594 443.53466796875 Z"/>
        </g>
      </g>
    </g>
    <g id="Group_41" data-name="Group 41" transform="translate(61.376 15.537)">
      <g id="Group_40" data-name="Group 40">
        <g id="Path_19" data-name="Path 19" class="cls-1" transform="translate(-368.256 -93.224)">
          <path class="cls-2" d="M 370.0706787109375 97.69830322265625 L 369.7268676757813 97.33638000488281 C 369.1498107910156 96.72897338867188 368.54248046875 96.13796997070313 367.9216918945313 95.57980346679688 L 367.5501708984375 95.24573516845703 L 367.8839721679688 94.87396240234375 L 369.6653137207031 92.88996124267578 L 369.999267578125 92.51802825927734 L 370.3712768554688 92.85186004638672 C 371.065185546875 93.47451019287109 371.7437744140625 94.13490295410156 372.38818359375 94.81468200683594 L 372.7323608398438 95.17774200439453 L 372.369140625 95.52172088623047 L 370.4331665039063 97.35504913330078 L 370.0706787109375 97.69830322265625 Z"/>
          <path class="cls-3" d="M 370.08935546875 96.99200439453125 L 372.0253295898438 95.15866851806641 C 371.3933410644531 94.49200439453125 370.725341796875 93.84133911132813 370.037353515625 93.2239990234375 L 368.2560119628906 95.20800018310547 C 368.8906860351563 95.77867126464844 369.5066833496094 96.37866973876953 370.08935546875 96.99200439453125 M 370.052001953125 98.40459442138672 L 369.3643493652344 97.68074798583984 C 368.7962951660156 97.08280944824219 368.1984558105469 96.50104522705078 367.58740234375 95.95159912109375 L 366.8443298339844 95.28347015380859 L 367.5119323730469 94.53992462158203 L 369.2932739257813 92.55592346191406 L 369.9611511230469 91.81204986572266 L 370.7052307128906 92.47971343994141 C 371.4091186523438 93.11132049560547 372.097412109375 93.78118133544922 372.7510681152344 94.470703125 L 373.4393920898438 95.19681549072266 L 372.7129211425781 95.88475799560547 L 370.7769470214844 97.71809387207031 L 370.052001953125 98.40459442138672 Z"/>
        </g>
      </g>
    </g>
    <g id="Group_43" data-name="Group 43" transform="translate(64.897 19.553)">
      <g id="Group_42" data-name="Group 42">
        <g id="Path_20" data-name="Path 20" class="cls-1" transform="translate(-389.384 -117.32)">
          <path class="cls-2" d="M 390.7837219238281 121.745849609375 L 390.5009460449219 121.3333969116211 C 390.0211486816406 120.6335906982422 389.5146179199219 119.9534530639648 388.9953308105469 119.3118896484375 L 388.6807250976563 118.9231567382813 L 389.0695190429688 118.6086120605469 L 391.1428527832031 116.9312744140625 L 391.5319519042969 116.6165008544922 L 391.8463439941406 117.0058746337891 C 392.4248657226563 117.7223205566406 392.9893798828125 118.4806137084961 393.5242004394531 119.2596740722656 L 393.8073120117188 119.6720657348633 L 393.3948059082031 119.9549942016602 L 391.1961364746094 121.4629898071289 L 390.7837219238281 121.745849609375 Z"/>
          <path class="cls-3" d="M 390.913330078125 121.050666809082 L 393.1119995117188 119.5426635742188 C 392.5893249511719 118.7813262939453 392.0333251953125 118.0333251953125 391.4573364257813 117.3199920654297 L 389.3840026855469 118.9973297119141 C 389.916015625 119.6546630859375 390.4306640625 120.3466644287109 390.913330078125 121.050666809082 M 390.6541137695313 122.4410552978516 L 390.0885620117188 121.6161270141602 C 389.6162109375 120.9271926879883 389.1176452636719 120.2577743530273 388.606689453125 119.6264495849609 L 387.9774475097656 118.8489761352539 L 388.7550354003906 118.2198944091797 L 390.828369140625 116.5425567626953 L 391.6065368652344 115.9130096435547 L 392.2353515625 116.691764831543 C 392.8219604492188 117.4182434082031 393.394287109375 118.1870040893555 393.9364013671875 118.9766845703125 L 394.5026550292969 119.8014755249023 L 393.6776123046875 120.3673324584961 L 391.4789428710938 121.8753356933594 L 390.6541137695313 122.4410552978516 Z"/>
        </g>
      </g>
    </g>
    <g id="Group_45" data-name="Group 45" transform="translate(71.975 39.963)">
      <g id="Group_44" data-name="Group 44">
        <g id="Path_21" data-name="Path 21" class="cls-1" transform="translate(-431.848 -239.776)">
          <path class="cls-2" d="M 434.9915161132813 243.0644378662109 L 434.4924926757813 243.0449676513672 L 431.8284912109375 242.9409637451172 L 431.3282470703125 242.9214324951172 L 431.348388671875 242.4212188720703 C 431.3649291992188 242.0104522705078 431.3733215332031 241.5816345214844 431.3733215332031 241.1466674804688 C 431.3733215332031 240.7201232910156 431.3649291992188 240.3008880615234 431.3484191894531 239.900634765625 L 431.3277282714844 239.3999328613281 L 431.8284912109375 239.3803863525391 L 434.4924926757813 239.2763824462891 L 434.9910583496094 239.2569274902344 L 435.0115661621094 239.7554626464844 C 435.0304260253906 240.2137298583984 435.0399780273438 240.680908203125 435.0399780273438 241.1440124511719 C 435.0399780273438 241.6184539794922 435.0304260253906 242.0966796875 435.0115966796875 242.5654296875 L 434.9915161132813 243.0644378662109 Z"/>
          <path class="cls-3" d="M 434.5119934082031 242.5453491210938 C 434.5306396484375 242.0813446044922 434.5399780273438 241.6146697998047 434.5399780273438 241.1440124511719 C 434.5399780273438 240.6866760253906 434.5306396484375 240.2293395996094 434.5119934082031 239.7760009765625 L 431.8479919433594 239.8800048828125 C 431.8653259277344 240.3000030517578 431.8733215332031 240.7239990234375 431.8733215332031 241.1466674804688 C 431.8733215332031 241.5800170898438 431.8653259277344 242.0106811523438 431.8479919433594 242.4413452148438 L 434.5119934082031 242.5453491210938 M 435.4710693359375 243.5835418701172 L 434.4729919433594 243.5445861816406 L 431.8089904785156 243.4405822753906 L 430.8085327148438 243.4015197753906 L 430.8487854003906 242.4011077880859 C 430.8650817871094 241.9970092773438 430.8733215332031 241.574951171875 430.8733215332031 241.1466674804688 C 430.8733215332031 240.7269744873047 430.8650817871094 240.3146820068359 430.8488464355469 239.9212493896484 L 430.8074951171875 238.9198608398438 L 431.8089904785156 238.8807678222656 L 434.4729919433594 238.7767639160156 L 435.4701232910156 238.7378387451172 L 435.5111389160156 239.7348937988281 C 435.5302734375 240.1999816894531 435.5399780273438 240.6740875244141 435.5399780273438 241.1440124511719 C 435.5399780273438 241.6251220703125 435.5303039550781 242.110107421875 435.5111694335938 242.5855102539063 L 435.4710693359375 243.5835418701172 Z"/>
        </g>
      </g>
    </g>
    <g id="Group_47" data-name="Group 47" transform="translate(67.787 24.123)">
      <g id="Group_46" data-name="Group 46">
        <g id="Path_22" data-name="Path 22" class="cls-1" transform="translate(-406.72 -144.736)">
          <path class="cls-2" d="M 407.6640014648438 148.9975738525391 L 407.4505310058594 148.5454864501953 C 407.0895690917969 147.7809753417969 406.6978454589844 147.029296875 406.2862548828125 146.3113098144531 L 406.0375671386719 145.8775024414063 L 406.4714050292969 145.6288604736328 L 408.7860107421875 144.3022003173828 L 409.2200012207031 144.053466796875 L 409.4685668945313 144.4875335693359 C 409.9327392578125 145.2981414794922 410.3695983886719 146.1367797851563 410.7669982910156 146.9802093505859 L 410.9799499511719 147.4321746826172 L 410.5281372070313 147.6454772949219 L 408.1161193847656 148.7841491699219 L 407.6640014648438 148.9975738525391 Z"/>
          <path class="cls-3" d="M 407.9026794433594 148.3320007324219 L 410.314697265625 147.1933288574219 C 409.9226684570313 146.361328125 409.4920043945313 145.53466796875 409.03466796875 144.7359924316406 L 406.7200317382813 146.0626525878906 C 407.1427001953125 146.7999877929688 407.5400390625 147.5639953613281 407.9026794433594 148.3320007324219 M 407.4253540039063 149.6631622314453 L 406.9984130859375 148.7589721679688 C 406.6430358886719 148.0063934326172 406.2575073242188 147.2665405273438 405.8524780273438 146.5599822998047 L 405.3551025390625 145.6923675537109 L 406.2227783203125 145.195068359375 L 408.5373840332031 143.868408203125 L 409.4053344726563 143.3709259033203 L 409.9024658203125 144.2390747070313 C 410.3731994628906 145.0611572265625 410.8162536621094 145.9116973876953 411.2192993164063 146.76708984375 L 411.6452331542969 147.6710357666016 L 410.7416076660156 148.0976257324219 L 408.3295593261719 149.2362976074219 L 407.4253540039063 149.6631622314453 Z"/>
        </g>
      </g>
    </g>
    <g id="Group_49" data-name="Group 49" transform="translate(69.964 29.136)">
      <g id="Group_48" data-name="Group 48">
        <g id="Path_23" data-name="Path 23" class="cls-1" transform="translate(-419.784 -174.816)">
          <path class="cls-2" d="M 420.2442016601563 178.8009033203125 L 420.1061401367188 178.3208618164063 C 419.8721618652344 177.5072631835938 419.6062927246094 176.7030487060547 419.3159790039063 175.9305725097656 L 419.1400756835938 175.4626159667969 L 419.6080017089844 175.2866516113281 L 422.1040344238281 174.3479919433594 L 422.5719909667969 174.1720123291016 L 422.7480163574219 174.6399688720703 C 423.07861328125 175.5189056396484 423.3758239746094 176.4173736572266 423.6314086914063 177.3104400634766 L 423.7689208984375 177.7909851074219 L 423.2884216308594 177.9286651611328 L 420.7243957519531 178.6633148193359 L 420.2442016601563 178.8009033203125 Z"/>
          <path class="cls-3" d="M 420.586669921875 178.1826629638672 L 423.1506958007813 177.447998046875 C 422.8973388671875 176.5626525878906 422.60400390625 175.6773223876953 422.280029296875 174.8159942626953 L 419.7839965820313 175.7546539306641 C 420.0826721191406 176.5493316650391 420.3519897460938 177.3666534423828 420.586669921875 178.1826629638672 M 419.9017333984375 179.4191436767578 L 419.6256103515625 178.4590454101563 C 419.395263671875 177.6581268310547 419.1336364746094 176.8666076660156 418.8479309082031 176.1064758300781 L 418.4961547851563 175.1705932617188 L 419.4320068359375 174.8186645507813 L 421.9280395507813 173.8800048828125 L 422.8639526367188 173.5280303955078 L 423.2160034179688 174.4639434814453 C 423.5513610839844 175.35546875 423.8528442382813 176.2668914794922 424.1120910644531 177.1728668212891 L 424.3871459960938 178.1339721679688 L 423.4261474609375 178.4093170166016 L 420.8620910644531 179.1439819335938 L 419.9017333984375 179.4191436767578 Z"/>
        </g>
      </g>
    </g>
    <g id="Group_51" data-name="Group 51" transform="translate(71.371 34.463)">
      <g id="Group_50" data-name="Group 50">
        <g id="Path_24" data-name="Path 24" class="cls-1" transform="translate(-428.224 -206.776)">
          <path class="cls-2" d="M 428.1882629394531 210.3849487304688 L 428.1300354003906 209.8874664306641 C 428.0337219238281 209.0645599365234 427.9004211425781 208.2276611328125 427.7338256835938 207.3999938964844 L 427.6351623535156 206.9096984863281 L 428.1254577636719 206.8111419677734 L 430.7388000488281 206.2858123779297 L 431.2286376953125 206.1873474121094 L 431.3274536132813 206.6771087646484 C 431.51171875 207.5901947021484 431.6610107421875 208.5251159667969 431.7711791992188 209.4559020996094 L 431.8299560546875 209.9522094726563 L 431.3336486816406 210.0111999511719 L 428.6856384277344 210.3258514404297 L 428.1882629394531 210.3849487304688 Z"/>
          <path class="cls-3" d="M 428.6266479492188 209.829345703125 L 431.274658203125 209.5146789550781 C 431.1666870117188 208.6026763916016 431.02001953125 207.6813354492188 430.8373413085938 206.7760009765625 L 428.2239990234375 207.3013305664063 C 428.3919982910156 208.1360015869141 428.5280151367188 208.9866638183594 428.6266479492188 209.829345703125 M 427.7498779296875 210.9405670166016 L 427.6334228515625 209.9455871582031 C 427.5386962890625 209.13623046875 427.4075622558594 208.3129577636719 427.24365234375 207.4986572265625 L 427.0462951660156 206.51806640625 L 428.0269165039063 206.3209381103516 L 430.6402587890625 205.7956085205078 L 431.6199340820313 205.5986785888672 L 431.8175659179688 206.5782012939453 C 432.0044860839844 207.5045166015625 432.1559448242188 208.4529266357422 432.2677307128906 209.3971099853516 L 432.3852233886719 210.3897552490234 L 431.3926696777344 210.5076904296875 L 428.7446594238281 210.8223571777344 L 427.7498779296875 210.9405670166016 Z"/>
        </g>
      </g>
    </g>
    <g id="Group_53" data-name="Group 53" transform="translate(57.312 12.173)">
      <g id="Group_52" data-name="Group 52">
        <g id="Path_25" data-name="Path 25" class="cls-1" transform="translate(-343.872 -73.04)">
          <path class="cls-2" d="M 346.0606384277344 77.45578002929688 L 345.6630554199219 77.15193939208984 C 344.995849609375 76.64203643798828 344.3021545410156 76.154541015625 343.6012268066406 75.70299530029297 L 343.1809997558594 75.43228912353516 L 343.4516296386719 75.01198577880859 L 344.8956298828125 72.76931762695313 L 345.1663513183594 72.34881591796875 L 345.5867919921875 72.61966705322266 C 346.3761596679688 73.12821197509766 347.1506958007813 73.67202758789063 347.8888854980469 74.23603057861328 L 348.2859497070313 74.53939819335938 L 347.9828186035156 74.9366455078125 L 346.3641662597656 77.05797576904297 L 346.0606384277344 77.45578002929688 Z"/>
          <path class="cls-3" d="M 345.9666748046875 76.75466918945313 L 347.5853271484375 74.63333892822266 C 346.8506469726563 74.07200622558594 346.0880126953125 73.53733825683594 345.3160095214844 73.04000091552734 L 343.8720092773438 75.28266906738281 C 344.583984375 75.74132537841797 345.2879943847656 76.23600006103516 345.9666748046875 76.75466918945313 M 346.1546020507813 78.15687561035156 L 345.3594665527344 77.54920959472656 C 344.7028503417969 77.04738616943359 344.0201721191406 76.56765747070313 343.3304443359375 76.12332916259766 L 342.489990234375 75.58190155029297 L 343.0312194824219 74.74131011962891 L 344.4752197265625 72.49864196777344 L 345.0167236328125 71.65763854980469 L 345.8575744628906 72.1993408203125 C 346.6581420898438 72.71508026123047 347.4436950683594 73.26664733886719 348.1924438476563 73.83872985839844 L 348.9865417480469 74.44545745849609 L 348.3803405761719 75.23995208740234 L 346.7616882324219 77.36128234863281 L 346.1546020507813 78.15687561035156 Z"/>
        </g>
      </g>
    </g>
    <g id="Group_55" data-name="Group 55" transform="translate(52.804 9.555)">
      <g id="Group_54" data-name="Group 54">
        <g id="Path_26" data-name="Path 26" class="cls-1" transform="translate(-316.824 -57.328)">
          <path class="cls-2" d="M 319.3294677734375 61.56621551513672 L 318.8890075683594 61.3299446105957 C 318.1497497558594 60.93338394165039 317.3875427246094 60.56289672851563 316.6236572265625 60.22875595092773 L 316.1656494140625 60.02841567993164 L 316.3659057617188 59.57036590576172 L 317.4338989257813 57.1276969909668 L 317.6338500976563 56.67036437988281 L 318.0915222167969 56.86951446533203 C 318.9482421875 57.24231719970703 319.8002319335938 57.65623474121094 320.623779296875 58.09978485107422 L 321.0634155273438 58.33655548095703 L 320.8272094726563 58.77650451660156 L 319.5658874511719 61.12584686279297 L 319.3294677734375 61.56621551513672 Z"/>
          <path class="cls-3" d="M 319.1253662109375 60.88933563232422 L 320.3866882324219 58.53999710083008 C 319.5746765136719 58.10266494750977 318.7346801757813 57.69466400146484 317.8920288085938 57.32799530029297 L 316.8240356445313 59.77066421508789 C 317.6013488769531 60.11066436767578 318.3746948242188 60.48666381835938 319.1253662109375 60.88933563232422 M 319.5335693359375 62.24308395385742 L 318.6526794433594 61.77055358886719 C 317.9250793457031 61.38027572631836 317.1750183105469 61.01566696166992 316.4232788085938 60.68685531616211 L 315.5072326660156 60.28616714477539 L 315.9077758789063 59.37005615234375 L 316.9757690429688 56.92738723754883 L 317.3756713867188 56.01274490356445 L 318.291015625 56.41104507446289 C 319.1604614257813 56.78937530517578 320.0250854492188 57.20943450927734 320.8608703613281 57.65956497192383 L 321.7401428222656 58.13312530517578 L 321.2677307128906 59.01301574707031 L 320.0064086914063 61.36235427856445 L 319.5335693359375 62.24308395385742 Z"/>
        </g>
      </g>
    </g>
  </g>
</svg>
