<?xml version="1.0" encoding="utf-8"?>
<!-- Generator: Adobe Illustrator 22.1.0, SVG Export Plug-In . SVG Version: 6.00 Build 0)  -->
<svg version="1.1" id="Layer_1" xmlns="http://www.w3.org/2000/svg" xmlns:xlink="http://www.w3.org/1999/xlink" x="0px" y="0px"
	 viewBox="0 0 101.3 80" style="enable-background:new 0 0 101.3 80;" xml:space="preserve">
<style type="text/css">
	.st0{fill:#FFFFFF;}
</style>
<path class="st0" d="M95.1,16.6L95.1,16.6c-4.6-5.4-10.4-9.6-17-12.1c-7.4-3-15.4-4.5-23.4-4.5c-8-0.1-16,1.4-23.4,4.5
	c-0.8,0.3-1.7,0.7-2.5,1.1c1.7,1.6,3.1,3.5,4.1,5.5c0.6-0.3,1.3-0.5,1.9-0.8c6.3-2.4,13.1-3.7,19.9-3.6c6.8-0.1,13.5,1.2,19.9,3.6
	c5.6,2,10.6,5.4,14.7,9.8c3.6,4.1,5.4,8.5,5.4,13.3s-1.8,9.2-5.4,13.3v0c-4,4.4-9.1,7.7-14.7,9.8c-6.3,2.4-13.1,3.7-19.9,3.6
	c-2.3,0-4.5-0.1-6.8-0.4l-3-0.3l-2.2,2c-4.3,3.7-9.1,6.7-14.3,8.9c1.6-2.8,2.8-5.8,3.6-9l1.4-5l-4.5-2.6c-4.1-2.2-7.7-5.4-10.5-9.1
	c-1-1.4-1.8-2.9-2.5-4.5c-0.3,0-0.6,0-0.9,0c-2.2,0-4.3-0.4-6.3-1c0.7,3.2,2.1,6.3,4.1,9c3.4,4.8,7.8,8.7,12.9,11.5
	c-0.4,1.3-0.8,2.7-1.4,4c-0.5,1.3-1,2.3-1.4,3.1c-0.5,0.9-1.1,1.8-1.7,2.7c-0.7,1-1.2,1.7-1.6,2.1c-0.4,0.4-1,1.1-1.8,2
	c-0.8,0.9-1.4,1.5-1.6,1.8c-0.2,0.1-0.3,0.3-0.4,0.5l-0.4,0.4L15,76.3c-0.2,0.3-0.3,0.4-0.2,0.5c0,0.2,0,0.4-0.1,0.5
	c-0.1,0.2-0.1,0.4,0,0.6V78c0.1,0.6,0.4,1.1,0.8,1.4c0.4,0.4,0.9,0.5,1.4,0.5h0.3c2-0.2,4-0.6,5.9-1.1c8.9-2.2,17.1-6.5,24-12.6
	c2.5,0.3,5,0.4,7.6,0.4c8,0.1,16-1.4,23.4-4.5c6.6-2.6,12.4-6.7,17-12.1C103.4,40.5,103.4,26.2,95.1,16.6z"/>
<path class="st0" d="M15,5C6.7,5,0,11.7,0,20s6.7,15,15,15s15-6.7,15-15S23.3,5,15,5z M17,28h-2.8V17.1l-3.4,1v-2.3l5.9-2.1H17V28z"
	/>
</svg>
