<?xml version="1.0" encoding="utf-8"?>
<!-- Generator: Adobe Illustrator 22.1.0, SVG Export Plug-In . SVG Version: 6.00 Build 0)  -->
<svg version="1.1" id="Layer_1" xmlns="http://www.w3.org/2000/svg" xmlns:xlink="http://www.w3.org/1999/xlink" x="0px" y="0px"
	 viewBox="0 0 828.1 190.5" style="enable-background:new 0 0 828.1 190.5;" xml:space="preserve">
<path d="M0,0c13.9,0,27.7,0,43.4,0c0,13.1,0,25.8,0,40.4c13.5,0,25.2,0,37.5,0c0,12.3,0,22.7,0,34.9c-12.1,0-23.8,0-36.3,0
	c0,20.7-0.4,39.5,0.2,58.3c0.3,9.6,6.8,14,16,14.2c6.4,0.2,12.7,0,20.7,0c0,8.9,0.6,17.8-0.3,26.6c-0.3,3-3.6,7.1-6.5,8.2
	c-28.3,10.3-59.4-1-74.8-26.5C0,104.1,0,52.1,0,0z"/>
<path d="M493.7,41.4c13.3,0,26.5,0,41.4,0c0,20.7-0.2,40.6,0.1,60.4c0.1,8.5,0.7,17,1.7,25.4c1.6,12.7,8.9,20,22.1,19.6
	c13.3-0.4,22.1-7.5,23.3-20.7c1.5-16.9,1.3-33.9,1.6-50.9c0.2-10.9,0-21.8,0-33.6c14.8,0,28.1,0,42.4,0c0,46.2,0,92.3,0,139
	c-29.4,1.6-58.7,4.5-88,4.2c-26.4-0.3-42.2-13.7-44.1-39.8C491.8,110.9,493.7,76.4,493.7,41.4z"/>
<path d="M775,180.5c-33,1.6-62.8,4.8-92.6,4.1c-26.7-0.6-42.6-17-44.5-39.8c-1.8-23.2,10.8-40.6,37.3-46.8c18.3-4.3,37.3-5.2,56-7.6
	c-0.5-20-12.9-26-45.8-20.6c-3.2-8.5-6.6-17.2-10.2-26.6c22.2-8,43.7-8.5,65.2-1c16.5,5.8,27.5,18.2,29,35.1
	C772.6,111.3,773.3,145.6,775,180.5z M731.4,118.5c-13.6,2.2-27.4,3.1-40.3,7.1c-4.9,1.5-10.7,10.5-10.2,15.4
	c0.5,4.9,7.7,11.4,13.3,13.1C716.2,161.1,734.2,144.8,731.4,118.5z"/>
<path d="M314.8,138.7c-18.3,19.9-32.8,35.7-47.6,51.8c-9.3-10.3-17.2-19.1-25.3-28.1c14-13.4,29.7-28.4,47-44.9
	c-18.9-17.4-35-32.2-51.8-47.6c11.3-10.8,20.1-19.3,30.9-29.7c14.4,16.1,29,32.4,45.3,50.8c16.9-18.6,31.3-34.5,46.4-51.1
	c9.8,10.8,18,19.8,26.9,29.6c-14.2,13.5-30,28.5-48.1,45.7c18.5,16.7,34.8,31.3,51.5,46.4c-10.8,10.2-19.4,18.4-29.1,27.6
	C346.8,173.7,332.1,157.6,314.8,138.7z"/>
<path d="M230.6,125.2c-32.6,0-64.5,0-97.3,0c2.4,19.5,16.4,24.3,31.7,28.4c0,10.2,0,20,0,29.9c-29.2,2.9-57.8-13.9-70.2-40.9
	c-13.3-29-6.4-64.5,16.5-85.5c23-21,62.1-26.4,88.2-12C224,58.6,236.9,90.4,230.6,125.2z M133.2,94.7c18.9,0,36.7,0,54.6,0
	c-1.4-16.8-9-24.9-23.6-25.7C147,68,136.3,76.6,133.2,94.7z"/>
<path d="M443.8,75.4c0,20.7-0.4,39.5,0.2,58.3c0.3,9.6,6.8,13.9,16,14.2c6.3,0.2,12.7,0,20.7,0c0,8.3,1,16.9-0.4,25
	c-0.7,3.9-5.6,9.5-9.2,10c-10.7,1.6-21.9,2.5-32.6,1.1c-27.9-3.5-39.1-17-39.2-45c-0.1-45.9,0-91.8,0-138.9c14.5,0,28.1,0,43.6,0
	c0,13,0,25.7,0,40c13,0,24.3,0,36.8,0c0,12.2,0,22.8,0,35.3C468,75.4,456.3,75.4,443.8,75.4z"/>
<path d="M828.1,0c0,60.7,0,120.4,0,180.9c-14,0-27.3,0-41.6,0c0-60.4,0-120.1,0-180.9C800.1,0,813.3,0,828.1,0z"/>
</svg>
